<svg width="360" height="556" viewBox="0 0 360 556" fill="none" xmlns="http://www.w3.org/2000/svg">
<path fill-rule="evenodd" clip-rule="evenodd" d="M236.882 108.445C240.832 145.294 145.031 169.33 62.5725 152.556C-19.8858 135.782 -57.7138 70.2784 -18.366 35.3754C20.9817 0.47237 232.931 71.5956 236.882 108.445Z" fill="#F0DC94" fill-opacity="0.34"/>
<path fill-rule="evenodd" clip-rule="evenodd" d="M360.001 308C360.001 308 328.556 288.396 219 278C109.444 267.604 -0.499896 313 -0.499896 313L-0.500352 405.001L-0.500417 555.999L287.501 556L360.001 556L360.001 308Z" fill="#0DA766"/>
<path d="M339.239 230.99C368.931 230.99 393 179.281 393 115.495C393 51.7089 368.931 0 339.239 0C309.548 0 285.479 51.7089 285.479 115.495C285.479 179.281 309.548 230.99 339.239 230.99Z" fill="#0DA766"/>
<path d="M338.973 117.328C341.591 66.9423 346.865 32.9091 346.918 32.5711L346.082 32.418C346.029 32.7562 340.748 66.8293 338.127 117.262C335.709 163.809 335.125 234.212 346.081 305.283L346.918 305.133C335.975 234.15 336.558 163.824 338.973 117.328Z" fill="#3F3D56"/>
<path d="M387.832 92.4156L339.234 119.865L339.644 120.674L388.242 93.224L387.832 92.4156Z" fill="#3F3D56"/>
<path d="M288.341 106.174L287.932 106.982L336.536 134.418L336.946 133.61L288.341 106.174Z" fill="#3F3D56"/>
<path d="M365.746 312.678C262.237 274.303 168.379 276.347 107.868 284.82C42.3125 293.999 0.714097 312.483 0.301731 312.668L0 311.749C0.413598 311.563 42.1099 293.035 107.768 283.842C146.39 278.44 185.358 277.273 224.165 280.355C272.341 284.174 319.955 294.71 366 311.739L365.746 312.678Z" fill="#3F3D56"/>
<path d="M232 279.283C232 279.283 232.233 274.805 237 275.325L232 279.283Z" fill="#3F3D56"/>
<path d="M230.5 275.283C231.881 275.283 233 274.164 233 272.783C233 271.402 231.881 270.283 230.5 270.283C229.119 270.283 228 271.402 228 272.783C228 274.164 229.119 275.283 230.5 275.283Z" fill="#0DA766"/>
<path d="M231 276.283H230V281.283H231V276.283Z" fill="#3F3D56"/>
<path d="M63 290.283C63 290.283 63.2326 285.805 68 286.325L63 290.283Z" fill="#3F3D56"/>
<path d="M61.5 286.283C62.8807 286.283 64 285.164 64 283.783C64 282.402 62.8807 281.283 61.5 281.283C60.1193 281.283 59 282.402 59 283.783C59 285.164 60.1193 286.283 61.5 286.283Z" fill="#0DA766"/>
<path d="M62 287.283H61V292.283H62V287.283Z" fill="#3F3D56"/>
<path d="M152 278.283C152 278.283 152.233 273.805 157 274.325L152 278.283Z" fill="#3F3D56"/>
<path d="M150.5 274.283C151.881 274.283 153 273.164 153 271.783C153 270.402 151.881 269.283 150.5 269.283C149.119 269.283 148 270.402 148 271.783C148 273.164 149.119 274.283 150.5 274.283Z" fill="#0DA766"/>
<path d="M151 275.283H150V280.283H151V275.283Z" fill="#3F3D56"/>
<path fill-rule="evenodd" clip-rule="evenodd" d="M270.429 336.212C212.738 305.127 211.765 259.738 209.581 212.717C207.396 165.696 200.479 82.9075 255.766 69.9357C311.053 56.964 399.951 132.566 393.619 212.717C387.287 292.868 328.12 367.297 270.429 336.212Z" fill="#FE390E" fill-opacity="0.32"/>
<path d="M318.104 273.283L332 293.555L319.062 306.283L317.385 302.983L320.26 296.383C320.26 296.383 319.781 290.255 318.104 288.605C316.427 286.955 309 277.055 309 277.055L318.104 273.283Z" fill="#FFB8B8"/>
<path d="M299.895 206.283C299.895 206.283 302.518 210.45 297.033 228.402C297.033 228.402 322.619 271.743 318.564 274.615C314.51 277.488 303.539 283.845 300.677 281.93C297.815 280.015 277 215.14 277 215.14L299.895 206.283Z" fill="#2F2E41"/>
<path d="M329.659 290.283L333.877 294.467C336.047 296.619 337.493 299.727 333.395 302.357C329.298 304.987 315.077 314.789 310.256 311.681C305.436 308.573 316.041 305.704 316.041 305.704C316.041 305.704 317.795 299.254 318.726 300.686C319.657 302.118 319.657 304.987 319.657 304.987L329.659 290.283Z" fill="#2F2E41"/>
<path d="M278 284.437C278 284.437 270.286 298.557 270.286 300.232C270.286 301.907 270.768 306.693 270.768 306.693L256.063 310.283L251 307.89L252.688 303.582C252.688 303.582 261.848 300.471 263.777 294.488C265.705 288.505 267.875 282.283 267.875 282.283L278 284.437Z" fill="#FFB8B8"/>
<path d="M287 143.283C292.523 143.283 297 138.582 297 132.783C297 126.984 292.523 122.283 287 122.283C281.477 122.283 277 126.984 277 132.783C277 138.582 281.477 143.283 287 143.283Z" fill="#FFB8B8"/>
<path d="M285 141.607L289.7 155.283L300 150.627C300 150.627 292.969 139.707 292.969 138.283L285 141.607Z" fill="#FFB8B8"/>
<path d="M283.112 191.283H295.611C295.611 191.283 304.572 205.222 299.384 219.882C298.589 222.127 297.801 225.272 297.013 228.99C295.203 237.54 293.401 249.123 291.554 259.766C288.959 274.715 286.276 287.812 283.36 288.049C277.464 288.53 266 288.45 266 286.047C266 283.643 273.679 214.115 273.679 214.115L275.33 211.231L275.642 198.669C275.691 196.686 276.501 194.802 277.898 193.422C279.294 192.041 281.166 191.273 283.112 191.283Z" fill="#2F2E41"/>
<path d="M270.812 300.283C270.812 300.283 273.608 304.711 272.879 307.89C272.149 311.068 270.934 310.614 265.584 311.068C260.235 311.522 242 311.522 242 308.344C242 305.165 256.225 301.037 256.285 302.306C256.345 303.575 256.831 306.073 255.373 306.527C253.914 306.981 255.251 306.641 255.251 306.641L270.812 300.283Z" fill="#2F2E41"/>
<path d="M285 220.675C285 220.675 283.909 238.636 276.633 233.289C269.357 227.942 279.469 218.283 279.469 218.283L285 220.675Z" fill="white"/>
<path d="M298.23 198.01C298.557 198.16 298.917 198.216 299.273 198.173C299.629 198.131 299.967 197.99 300.25 197.767C300.661 197.44 300.935 196.966 301.017 196.442C302 190.69 303.196 174.743 303.886 166.68C304.75 156.562 300.43 148.725 300.394 148.677L297.848 145.123C297.584 144.752 297.203 144.482 296.769 144.359C296.334 144.235 295.871 144.264 295.455 144.441C295.455 144.441 287.507 152.813 287.477 153.136C287.353 154.524 286.407 157.6 281.476 162.605C276.081 168.082 276.051 172.862 276.17 174.196C276.178 174.284 276.182 174.372 276.182 174.459C276.172 175.058 276.252 175.655 276.42 176.229C278.68 183.461 276.91 192.119 274.068 201.157C273.961 201.566 273.981 201.998 274.126 202.394C274.271 202.791 274.533 203.131 274.878 203.369C275.708 203.942 274.712 203.092 275.008 203.46C276.967 205.896 279.785 202.501 283.009 198.796C284.132 197.505 285.405 196.043 286.905 194.52C288.968 192.426 292.909 197.204 294.742 197.204C295.947 197.219 297.137 197.494 298.23 198.01Z" fill="#FE9E0E"/>
<path d="M299.755 152.347C299.755 152.347 305.105 156.81 302.066 162.598C299.026 168.386 299.43 172.655 299.43 172.655C299.43 172.655 298.621 212.417 289.123 210.485L284.803 222.283L277 219.498L281.512 209.092C281.512 209.092 277.898 208.869 278.954 206.434C279.696 204.723 283.692 186.16 286.004 175.262C286.985 170.643 287.662 167.401 287.662 167.401C287.662 167.401 290.737 151.143 299.755 152.347Z" fill="#FE9E0E"/>
<path opacity="0.2" d="M301 172.644L298 192.283L299.619 171.283L301 172.644Z" fill="black"/>
<path d="M276.067 128.237C276.067 128.237 274.348 114.751 288.372 119.174C288.372 119.174 298.389 117.321 301.674 129.952L305 143.192L303.379 142.303L302.623 143.968L299.997 144.639L298.873 142.39L298.329 145.121L276.814 147.283C276.814 147.283 286.45 141.538 286.603 131.242L284.768 133.197L276.067 128.237Z" fill="#2F2E41"/>
<path opacity="0.2" d="M292 259.778L297 228.283L292.934 262.283L292 259.778Z" fill="black"/>
<path d="M299.5 125.283C302.538 125.283 305 122.821 305 119.783C305 116.746 302.538 114.283 299.5 114.283C296.462 114.283 294 116.746 294 119.783C294 122.821 296.462 125.283 299.5 125.283Z" fill="#2F2E41"/>
<path d="M294.678 118.477C294.765 117.081 295.365 115.772 296.353 114.816C297.342 113.861 298.646 113.331 300 113.334C299.89 113.32 299.781 113.302 299.669 113.295C298.971 113.248 298.271 113.344 297.609 113.577C296.947 113.81 296.335 114.175 295.81 114.652C295.284 115.13 294.855 115.709 294.546 116.358C294.238 117.007 294.056 117.712 294.011 118.433C293.966 119.155 294.059 119.878 294.285 120.562C294.511 121.247 294.865 121.878 295.327 122.421C295.789 122.964 296.35 123.407 296.977 123.726C297.605 124.044 298.288 124.232 298.986 124.278C299.098 124.286 299.208 124.283 299.319 124.283C297.976 124.107 296.748 123.409 295.886 122.33C295.024 121.251 294.592 119.874 294.678 118.477Z" fill="#2F2E41"/>
<path opacity="0.2" d="M284.629 177.933L280 203.283L286 175.283L284.629 177.933Z" fill="black"/>
<path d="M276.585 134.159L278.769 133.052C279.272 136.1 281.454 138.23 284.142 140.095L282.033 141.692C279.437 140.246 277.424 137.19 276.585 134.159Z" fill="#1A0F0F" stroke="#190F0F"/>
<path d="M285.781 133.283H279.219C279.161 133.283 279.105 133.231 279.064 133.137C279.023 133.043 279 132.916 279 132.783C279 132.651 279.023 132.523 279.064 132.43C279.105 132.336 279.161 132.283 279.219 132.283H285.781C285.839 132.283 285.895 132.336 285.936 132.43C285.977 132.523 286 132.651 286 132.783C286 132.916 285.977 133.043 285.936 133.137C285.895 133.231 285.839 133.283 285.781 133.283Z" fill="black"/>
<path d="M284.3 140.283C284.251 140.283 284.203 140.274 284.159 140.257C284.116 140.239 284.079 140.214 284.051 140.183C284.024 140.153 284.007 140.117 284.002 140.08C283.996 140.043 284.003 140.006 284.022 139.972L286.422 135.427C286.436 135.399 286.458 135.374 286.485 135.352C286.513 135.331 286.545 135.314 286.582 135.302C286.618 135.29 286.657 135.284 286.696 135.283C286.736 135.283 286.775 135.288 286.812 135.299C286.848 135.311 286.882 135.327 286.91 135.348C286.938 135.369 286.96 135.394 286.976 135.421C286.991 135.449 287 135.478 287 135.508C287 135.538 286.993 135.568 286.978 135.595L284.578 140.14C284.556 140.182 284.518 140.219 284.468 140.244C284.418 140.27 284.36 140.283 284.3 140.283Z" fill="black"/>
<path d="M286.5 136.283C287.328 136.283 288 135.164 288 133.783C288 132.402 287.328 131.283 286.5 131.283C285.672 131.283 285 132.402 285 133.783C285 135.164 285.672 136.283 286.5 136.283Z" fill="#FFB8B8"/>
<path d="M27 260.283C44.6731 260.283 59 230.734 59 194.283C59 157.832 44.6731 128.283 27 128.283C9.32689 128.283 -5 157.832 -5 194.283C-5 230.734 9.32689 260.283 27 260.283Z" fill="#0DA766"/>
<path d="M26.7299 194.842C28.4662 166.046 31.9647 146.596 31.9998 146.403L31.2408 146.283C31.2056 146.476 27.701 165.958 25.9618 194.79C24.3569 221.401 23.9697 261.651 31.2406 302.283L32 302.166C24.7415 261.602 25.1278 221.413 26.7299 194.842Z" fill="#3F3D56"/>
<path d="M-3.95527 188.919L-4.29297 189.551L24.9762 205.206L25.3139 204.575L-3.95527 188.919Z" fill="#3F3D56"/>
<path fill-rule="evenodd" clip-rule="evenodd" d="M64.4287 352.212C6.73751 321.127 5.76539 275.738 3.58072 228.717C1.39606 181.696 -5.52114 98.9075 49.7657 85.9357C105.053 72.964 193.951 148.566 187.619 228.717C181.287 308.868 122.12 383.297 64.4287 352.212Z" fill="#96B0F4" fill-opacity="0.62"/>
<path d="M104.372 165.788L75.1074 181.451L75.4453 182.082L104.71 166.419L104.372 165.788Z" fill="#3F3D56"/>
<path d="M83.5059 282H82.5059V287H83.5059V282Z" fill="#3F3D56"/>
<path d="M82.7354 270.561C82.7354 270.561 82.7354 302.909 75.3911 311.394C75.3911 311.394 73.8173 315.636 73.2927 317.227C72.9994 318.133 72.649 319.019 72.2436 319.879V322C72.2436 322 58.0796 320.409 56.5059 316.697L59.1288 313.515C59.1288 313.515 59.6534 312.985 59.1288 311.394C58.6042 309.803 60.178 309.803 60.178 309.803L63.8501 301.318L63.3255 266.318L65.9485 218.061L88.5059 217L82.7354 270.561Z" fill="#2F2E41"/>
<path d="M70.8643 319.1C70.8643 319.1 74.5578 330.125 70.8643 330.65C67.1708 331.175 34.9846 331.7 35.5123 327.5C36.0399 323.3 46.5928 323.825 46.5928 323.825L57.6733 317L70.8643 319.1Z" fill="#2F2E41"/>
<path d="M103.655 218C103.655 218 104.715 224.912 100.476 232.356C96.2372 239.8 98.8864 264.789 98.8864 264.789L136.506 297.755C136.506 297.755 129.088 310.516 126.439 309.984C123.789 309.452 81.9312 275.423 81.9312 275.423L65.5059 220.127L103.655 218Z" fill="#2F2E41"/>
<path d="M136.433 296C136.433 296 147.913 298.848 146.362 302.292C144.811 305.737 127.813 333.55 124.489 330.811C121.165 328.071 127.337 319.332 127.337 319.332L127.477 306.137L136.433 296Z" fill="#2F2E41"/>
<path fill-rule="evenodd" clip-rule="evenodd" d="M80 129.273C78.3274 129.908 76.9007 130.143 76.0438 129.914C72.3904 128.938 72.0546 115.082 74.8813 109.619C77.708 104.157 92.2398 101.776 92.9723 112.599C93.214 116.17 91.8506 119.377 89.7838 122.035L90 122L95 145H80V129.273Z" fill="#A0616A"/>
<path d="M79.3662 144.898C79.3662 144.898 93.8064 130.481 97.5501 131.014C101.294 131.548 101.294 133.15 101.294 134.218C101.294 135.286 100.224 135.82 101.294 136.354C102.363 136.888 103.433 136.354 103.433 137.956C103.433 139.558 113.06 155.577 109.851 173.198C106.642 190.819 102.898 199.363 104.503 208.975C106.107 218.586 105.038 220.722 105.038 220.722C105.038 220.722 64.9261 223.926 64.3913 220.188C63.8564 216.45 65.9957 218.586 63.3216 215.916C60.6475 213.246 61.7171 213.246 61.7171 211.644C61.7171 210.043 73.4832 144.898 79.3662 144.898Z" fill="#101EFA"/>
<path d="M79.8563 213.733C75.4291 221.773 74.1433 223.052 74.1433 223.052L72.1782 225.516C72.1782 225.516 72.6825 226.383 72.9995 226.136C73.9195 225.419 77.5876 221.531 77.5 220.998C77.4124 220.465 74.4026 228.337 75.1365 228.424C75.8703 228.511 76.4122 228.237 77.2502 228.154C78.3426 228.045 80.3088 227.432 80.5421 227.264C80.7754 227.096 81.453 224.731 81.453 224.731C79.9995 222 86.8964 217.709 88.1011 216.286C88.7577 215.51 95.3879 209.669 90.0391 207.773C84.965 205.973 84.6226 206.043 82.5681 208.833C80.9874 210.977 79.8563 213.733 79.8563 213.733Z" fill="#A0616A"/>
<path d="M78.2476 232.728L83.1996 229.659C83.5 229.473 83.535 229.049 83.2714 228.815L73.6511 220.27C73.4766 220.116 73.2205 220.093 73.0226 220.216L68.0692 223.285C67.7688 223.472 67.7332 223.894 67.9974 224.13L77.6185 232.673C77.7936 232.828 78.0483 232.851 78.2476 232.728Z" fill="#4381DB"/>
<path d="M77.6264 233.111L82.5773 230.043C82.8771 229.857 82.9142 229.432 82.6504 229.197L73.0289 220.654C72.8556 220.498 72.5976 220.477 72.3992 220.6L67.4483 223.668C67.1485 223.854 67.1108 224.278 67.3752 224.513L76.9961 233.056C77.1713 233.212 77.428 233.233 77.6264 233.111Z" fill="#F2F2F2"/>
<path d="M80.8564 213.734C76.4293 221.775 76.4988 225.266 76.4988 225.266C76.4988 225.266 76.2933 226.492 75.9988 226.766L75.5 228.765C75.5 228.765 76.4711 229.84 77.2049 229.927C77.9388 230.014 78.7295 230.084 79.5675 230C80.66 229.891 82.3773 228.934 82.6106 228.767C82.8439 228.599 83.5682 223 83.5682 223C82.1148 220.268 87.8965 217.711 89.1012 216.288C89.7578 215.512 96.388 209.67 91.0392 207.774C85.9651 205.974 85.6227 206.045 83.5682 208.834C81.9876 210.978 80.8564 213.734 80.8564 213.734Z" fill="#A0616A"/>
<g opacity="0.2">
<path d="M101.24 197L87.2399 220L92.0007 220L101.24 197Z" fill="black"/>
<path d="M79.1348 223.498L76 229.5L77 228.498L79.1348 223.498Z" fill="black"/>
</g>
<path d="M102.626 146.097C102.626 146.097 115.12 147.527 110.468 170.472C105.816 193.416 87.7365 220 87.7365 220L75.5059 214.152L91.4588 182.783L87.7365 163.111C87.7365 163.111 85.6094 144.502 102.626 146.097Z" fill="#111664"/>
<path opacity="0.2" d="M91.5059 183L73.5059 212.397L75.1423 214L91.5059 183Z" fill="black"/>
<path d="M79.5059 148C80.0581 148 80.5059 147.776 80.5059 147.5C80.5059 147.224 80.0581 147 79.5059 147C78.9536 147 78.5059 147.224 78.5059 147.5C78.5059 147.776 78.9536 148 79.5059 148Z" fill="#D0CDE1"/>
<path d="M72.874 169C72.9527 169 73.0294 168.974 73.0927 168.925C73.156 168.876 73.2027 168.807 73.2259 168.728L79.4892 147.501C79.5036 147.452 79.5087 147.401 79.5043 147.351C79.4999 147.3 79.486 147.251 79.4635 147.206C79.4409 147.161 79.4101 147.121 79.3729 147.089C79.3356 147.057 79.2926 147.032 79.2464 147.017C79.2001 147.002 79.1515 146.997 79.1033 147.002C79.055 147.006 79.0082 147.021 78.9654 147.045C78.9226 147.068 78.8846 147.101 78.8538 147.14C78.8229 147.179 78.7997 147.224 78.7854 147.273L72.5221 168.5C72.5052 168.558 72.5014 168.619 72.5111 168.679C72.5208 168.738 72.5436 168.794 72.5778 168.843C72.6121 168.892 72.6567 168.931 72.7081 168.958C72.7596 168.986 72.8164 169 72.874 169V169Z" fill="#D0CDE1"/>
<path fill-rule="evenodd" clip-rule="evenodd" d="M83.1449 114.11C82.2005 112.653 81.2486 111.521 79.9951 110.798C74.2653 110.526 73.6552 109.52 73.8579 106.27C74.8213 105.706 78.149 104.862 81.8209 104.796C83.7159 104.411 85.9179 104.643 87.9927 105.611C90.5746 106.475 92.7038 108.121 93.5098 111.005C96.7033 116.988 93.6326 122.818 89.8708 124.64C88.9707 123.503 88.1916 122.406 87.5007 121.36C88.1404 120.843 88.5643 120.091 88.6178 119.233C88.7232 117.544 87.3511 116.083 85.5532 115.971C85.3385 115.958 85.1275 115.964 84.9221 115.989C84.7871 119.143 84.4565 124.855 83.7729 127.08C82.8062 130.227 77.1655 130.999 75.1982 130.999C73.499 130.999 73.5569 129.265 73.5984 128.023C73.6044 127.844 73.61 127.675 73.61 127.523C73.61 127.205 73.9932 127.206 74.4261 127.207C74.9883 127.208 75.6343 127.21 75.6343 126.515C75.6343 125.757 74.6627 125.176 73.7933 124.656C73.2509 124.331 72.7482 124.031 72.5461 123.726C71.9084 122.764 71.6936 121.466 72.6557 121.466C73.1815 121.466 73.903 121.793 74.771 122.186C76.0814 122.779 77.7256 123.524 79.5349 123.524C81.9363 123.524 82.8671 116.815 83.1449 114.11Z" fill="#191847"/>
<path d="M78.122 127.31C78.0705 127.281 78.0292 127.236 78.0026 127.179C77.9759 127.122 77.9646 127.054 77.9699 126.983C77.9752 126.912 77.9968 126.839 78.0327 126.773C78.0686 126.707 78.1174 126.65 78.1744 126.606L84.3421 121.888C84.3848 121.855 84.4312 121.831 84.4786 121.817C84.526 121.804 84.5735 121.8 84.6183 121.807C84.663 121.814 84.7042 121.832 84.7395 121.859C84.7748 121.886 84.8035 121.922 84.824 121.965C84.8444 122.008 84.8562 122.057 84.8586 122.109C84.8611 122.162 84.8542 122.216 84.8383 122.27C84.8223 122.323 84.7978 122.375 84.7659 122.421C84.7341 122.468 84.6956 122.509 84.6527 122.541L78.485 127.259C78.4273 127.303 78.3632 127.331 78.2994 127.34C78.2356 127.349 78.1744 127.339 78.122 127.31Z" fill="white"/>
<path d="M78.4123 127.527L74.7092 129.488C72.1444 127.117 70.414 122.199 70.5513 118.612L74.8278 118.086C74.1037 121.579 75.8679 124.54 78.4123 127.527Z" fill="white"/>
<path d="M83.7197 118.201C83.7048 118.206 83.6895 118.21 83.674 118.212L74.4806 119.715C74.438 119.722 74.3941 119.72 74.3516 119.709C74.3091 119.699 74.2688 119.679 74.2329 119.653C74.197 119.626 74.1663 119.592 74.1426 119.554C74.1188 119.515 74.1025 119.472 74.0944 119.427C74.0864 119.382 74.0869 119.337 74.0958 119.293C74.1047 119.249 74.1219 119.207 74.1464 119.17C74.1709 119.134 74.2022 119.103 74.2386 119.079C74.2749 119.056 74.3156 119.04 74.3583 119.033L83.5517 117.53C83.6339 117.517 83.7189 117.537 83.7896 117.585C83.8603 117.634 83.9115 117.709 83.9328 117.794C83.9541 117.879 83.944 117.968 83.9044 118.044C83.8649 118.119 83.7989 118.176 83.7197 118.201Z" fill="white"/>
</svg>
